<?xml version="1.0" encoding="UTF-8" standalone="no"?>
<!DOCTYPE svg PUBLIC "-//W3C//DTD SVG 1.1//EN"
 "http://www.w3.org/Graphics/SVG/1.1/DTD/svg11.dtd">
<!-- Generated by graphviz version 2.43.0 (0)
 -->
<!-- Title: %3 Pages: 1 -->
<svg width="1329pt" height="476pt"
 viewBox="0.00 0.00 1328.64 476.00" xmlns="http://www.w3.org/2000/svg" xmlns:xlink="http://www.w3.org/1999/xlink">
<g id="graph0" class="graph" transform="scale(1 1) rotate(0) translate(4 472)">
<title>%3</title>
<polygon fill="white" stroke="transparent" points="-4,4 -4,-472 1324.64,-472 1324.64,4 -4,4"/>
<!-- Tropical.injective_trop -->
<g id="node1" class="node">
<title>Tropical.injective_trop</title>
<ellipse fill="none" stroke="black" cx="789.7" cy="-450" rx="114.28" ry="18"/>
<text text-anchor="middle" x="789.7" y="-446.3" font-family="Times,serif" font-size="14.00">Tropical.injective_trop</text>
</g>
<!-- Tropical.tropEquiv -->
<g id="node2" class="node">
<title>Tropical.tropEquiv</title>
<ellipse fill="none" stroke="green" cx="554.7" cy="-378" rx="97.48" ry="18"/>
<text text-anchor="middle" x="554.7" y="-374.3" font-family="Times,serif" font-size="14.00">Tropical.tropEquiv</text>
</g>
<!-- Tropical.injective_trop&#45;&gt;Tropical.tropEquiv -->
<g id="edge1" class="edge">
<title>Tropical.injective_trop&#45;&gt;Tropical.tropEquiv</title>
<path fill="none" stroke="black" d="M738.71,-433.81C702.03,-422.89 652.45,-408.12 614,-396.67"/>
<polygon fill="black" stroke="black" points="614.56,-393.18 603.98,-393.68 612.56,-399.89 614.56,-393.18"/>
</g>
<!-- Equiv.injective -->
<g id="node3" class="node">
<title>Equiv.injective</title>
<ellipse fill="none" stroke="green" cx="944.7" cy="-378" rx="78.79" ry="18"/>
<text text-anchor="middle" x="944.7" y="-374.3" font-family="Times,serif" font-size="14.00">Equiv.injective</text>
</g>
<!-- Tropical.injective_trop&#45;&gt;Equiv.injective -->
<g id="edge2" class="edge">
<title>Tropical.injective_trop&#45;&gt;Equiv.injective</title>
<path fill="none" stroke="black" d="M825.65,-432.76C848.31,-422.53 877.69,-409.26 901.6,-398.46"/>
<polygon fill="black" stroke="black" points="903.13,-401.61 910.8,-394.31 900.25,-395.23 903.13,-401.61"/>
</g>
<!-- Tropical.trop -->
<g id="node4" class="node">
<title>Tropical.trop</title>
<ellipse fill="none" stroke="blue" cx="652.7" cy="-234" rx="70.69" ry="18"/>
<text text-anchor="middle" x="652.7" y="-230.3" font-family="Times,serif" font-size="14.00">Tropical.trop</text>
</g>
<!-- Tropical.injective_trop&#45;&gt;Tropical.trop -->
<g id="edge18" class="edge">
<title>Tropical.injective_trop&#45;&gt;Tropical.trop</title>
<path fill="none" stroke="black" d="M778.72,-431.85C754.66,-394.27 697.19,-304.51 668.94,-260.37"/>
<polygon fill="black" stroke="black" points="671.88,-258.47 663.54,-251.94 665.98,-262.24 671.88,-258.47"/>
</g>
<!-- Function.Injective -->
<g id="node11" class="node">
<title>Function.Injective</title>
<ellipse fill="none" stroke="blue" cx="865.7" cy="-90" rx="94.78" ry="18"/>
<text text-anchor="middle" x="865.7" y="-86.3" font-family="Times,serif" font-size="14.00">Function.Injective</text>
</g>
<!-- Tropical.injective_trop&#45;&gt;Function.Injective -->
<g id="edge19" class="edge">
<title>Tropical.injective_trop&#45;&gt;Function.Injective</title>
<path fill="none" stroke="black" d="M793.54,-431.61C799.09,-404.94 808.7,-352.27 808.7,-307 808.7,-307 808.7,-307 808.7,-233 808.7,-189.8 831.7,-144.19 848.48,-116.66"/>
<polygon fill="black" stroke="black" points="851.53,-118.37 853.89,-108.04 845.6,-114.65 851.53,-118.37"/>
</g>
<!-- Tropical.tropEquiv&#45;&gt;Tropical.trop -->
<g id="edge3" class="edge">
<title>Tropical.tropEquiv&#45;&gt;Tropical.trop</title>
<path fill="none" stroke="black" d="M580.2,-360.63C593.18,-351.22 608.36,-338.42 618.7,-324 632.13,-305.26 641.02,-280.54 646.32,-261.9"/>
<polygon fill="black" stroke="black" points="649.77,-262.56 648.98,-251.99 643.01,-260.75 649.77,-262.56"/>
</g>
<!-- Tropical.untrop_trop -->
<g id="node5" class="node">
<title>Tropical.untrop_trop</title>
<ellipse fill="none" stroke="green" cx="486.7" cy="-306" rx="106.68" ry="18"/>
<text text-anchor="middle" x="486.7" y="-302.3" font-family="Times,serif" font-size="14.00">Tropical.untrop_trop</text>
</g>
<!-- Tropical.tropEquiv&#45;&gt;Tropical.untrop_trop -->
<g id="edge4" class="edge">
<title>Tropical.tropEquiv&#45;&gt;Tropical.untrop_trop</title>
<path fill="none" stroke="black" d="M538.24,-360.05C529.8,-351.37 519.38,-340.64 510.12,-331.11"/>
<polygon fill="black" stroke="black" points="512.48,-328.52 503.01,-323.79 507.46,-333.4 512.48,-328.52"/>
</g>
<!-- Tropical.untrop -->
<g id="node6" class="node">
<title>Tropical.untrop</title>
<ellipse fill="none" stroke="blue" cx="481.7" cy="-234" rx="82.59" ry="18"/>
<text text-anchor="middle" x="481.7" y="-230.3" font-family="Times,serif" font-size="14.00">Tropical.untrop</text>
</g>
<!-- Tropical.tropEquiv&#45;&gt;Tropical.untrop -->
<g id="edge5" class="edge">
<title>Tropical.tropEquiv&#45;&gt;Tropical.untrop</title>
<path fill="none" stroke="black" d="M574.94,-360.12C594.32,-341.85 618.45,-312.1 602.7,-288 590.78,-269.77 571.06,-257.77 550.95,-249.89"/>
<polygon fill="black" stroke="black" points="552,-246.55 541.41,-246.45 549.63,-253.13 552,-246.55"/>
</g>
<!-- Equiv.mk -->
<g id="node7" class="node">
<title>Equiv.mk</title>
<ellipse fill="none" stroke="green" cx="77.7" cy="-306" rx="53.09" ry="18"/>
<text text-anchor="middle" x="77.7" y="-302.3" font-family="Times,serif" font-size="14.00">Equiv.mk</text>
</g>
<!-- Tropical.tropEquiv&#45;&gt;Equiv.mk -->
<g id="edge6" class="edge">
<title>Tropical.tropEquiv&#45;&gt;Equiv.mk</title>
<path fill="none" stroke="black" d="M468.28,-369.54C383.94,-361.41 252.23,-346.5 139.7,-324 135.27,-323.11 130.69,-322.08 126.12,-320.98"/>
<polygon fill="black" stroke="black" points="126.75,-317.52 116.19,-318.46 125.02,-324.31 126.75,-317.52"/>
</g>
<!-- Tropical.trop_untrop -->
<g id="node8" class="node">
<title>Tropical.trop_untrop</title>
<ellipse fill="none" stroke="green" cx="255.7" cy="-306" rx="106.68" ry="18"/>
<text text-anchor="middle" x="255.7" y="-302.3" font-family="Times,serif" font-size="14.00">Tropical.trop_untrop</text>
</g>
<!-- Tropical.tropEquiv&#45;&gt;Tropical.trop_untrop -->
<g id="edge7" class="edge">
<title>Tropical.tropEquiv&#45;&gt;Tropical.trop_untrop</title>
<path fill="none" stroke="black" d="M496.69,-363.42C447.63,-351.93 377.21,-335.45 325.16,-323.26"/>
<polygon fill="black" stroke="black" points="325.87,-319.83 315.33,-320.96 324.27,-326.65 325.87,-319.83"/>
</g>
<!-- Equiv -->
<g id="node18" class="node">
<title>Equiv</title>
<ellipse fill="none" stroke="blue" cx="37.7" cy="-234" rx="37.89" ry="18"/>
<text text-anchor="middle" x="37.7" y="-230.3" font-family="Times,serif" font-size="14.00">Equiv</text>
</g>
<!-- Tropical.tropEquiv&#45;&gt;Equiv -->
<g id="edge20" class="edge">
<title>Tropical.tropEquiv&#45;&gt;Equiv</title>
<path fill="none" stroke="black" d="M458.86,-374.43C311.93,-369.48 44.82,-356.13 15.7,-324 -0.08,-306.59 9.65,-279.67 20.72,-259.99"/>
<polygon fill="black" stroke="black" points="23.82,-261.62 25.99,-251.25 17.83,-258.01 23.82,-261.62"/>
</g>
<!-- Tropical -->
<g id="node19" class="node">
<title>Tropical</title>
<ellipse fill="none" stroke="blue" cx="692.7" cy="-162" rx="48.19" ry="18"/>
<text text-anchor="middle" x="692.7" y="-158.3" font-family="Times,serif" font-size="14.00">Tropical</text>
</g>
<!-- Tropical.tropEquiv&#45;&gt;Tropical -->
<g id="edge21" class="edge">
<title>Tropical.tropEquiv&#45;&gt;Tropical</title>
<path fill="none" stroke="black" d="M597.09,-361.6C640.65,-343.15 705.8,-307.57 732.7,-252 739.67,-237.6 737.78,-231.17 732.7,-216 729.14,-205.4 722.54,-195.22 715.71,-186.67"/>
<polygon fill="black" stroke="black" points="718.33,-184.35 709.18,-179.01 713,-188.89 718.33,-184.35"/>
</g>
<!-- EquivLike.injective -->
<g id="node9" class="node">
<title>EquivLike.injective</title>
<ellipse fill="none" stroke="green" cx="1005.7" cy="-306" rx="99.38" ry="18"/>
<text text-anchor="middle" x="1005.7" y="-302.3" font-family="Times,serif" font-size="14.00">EquivLike.injective</text>
</g>
<!-- Equiv.injective&#45;&gt;EquivLike.injective -->
<g id="edge8" class="edge">
<title>Equiv.injective&#45;&gt;EquivLike.injective</title>
<path fill="none" stroke="black" d="M959.46,-360.05C966.85,-351.58 975.92,-341.17 984.07,-331.82"/>
<polygon fill="black" stroke="black" points="986.71,-334.11 990.64,-324.28 981.43,-329.51 986.71,-334.11"/>
</g>
<!-- Equiv.injective&#45;&gt;Function.Injective -->
<g id="edge22" class="edge">
<title>Equiv.injective&#45;&gt;Function.Injective</title>
<path fill="none" stroke="black" d="M925.41,-360.2C915.59,-350.58 904.36,-337.72 897.7,-324 864.5,-255.63 862.66,-163.49 864.13,-118.3"/>
<polygon fill="black" stroke="black" points="867.63,-118.26 864.54,-108.12 860.64,-117.97 867.63,-118.26"/>
</g>
<!-- FunLike.coe -->
<g id="node20" class="node">
<title>FunLike.coe</title>
<ellipse fill="none" stroke="blue" cx="1253.7" cy="-90" rx="66.89" ry="18"/>
<text text-anchor="middle" x="1253.7" y="-86.3" font-family="Times,serif" font-size="14.00">FunLike.coe</text>
</g>
<!-- Equiv.injective&#45;&gt;FunLike.coe -->
<g id="edge23" class="edge">
<title>Equiv.injective&#45;&gt;FunLike.coe</title>
<path fill="none" stroke="black" d="M1003.17,-365.83C1066.35,-350.76 1165.74,-317.83 1223.7,-252 1257.04,-214.13 1261.07,-194.4 1258.7,-144 1258.3,-135.66 1257.57,-126.6 1256.77,-118.37"/>
<polygon fill="black" stroke="black" points="1260.23,-117.75 1255.73,-108.16 1253.27,-118.46 1260.23,-117.75"/>
</g>
<!-- id -->
<g id="node10" class="node">
<title>id</title>
<ellipse fill="none" stroke="green" cx="560.7" cy="-162" rx="27" ry="18"/>
<text text-anchor="middle" x="560.7" y="-158.3" font-family="Times,serif" font-size="14.00">id</text>
</g>
<!-- Tropical.trop&#45;&gt;id -->
<g id="edge9" class="edge">
<title>Tropical.trop&#45;&gt;id</title>
<path fill="none" stroke="black" d="M631.36,-216.76C617.91,-206.53 600.46,-193.26 586.27,-182.46"/>
<polygon fill="black" stroke="black" points="588,-179.37 577.92,-176.1 583.76,-184.95 588,-179.37"/>
</g>
<!-- Tropical.trop&#45;&gt;Tropical -->
<g id="edge24" class="edge">
<title>Tropical.trop&#45;&gt;Tropical</title>
<path fill="none" stroke="black" d="M662.38,-216.05C667.1,-207.8 672.87,-197.7 678.1,-188.54"/>
<polygon fill="black" stroke="black" points="681.18,-190.21 683.1,-179.79 675.1,-186.73 681.18,-190.21"/>
</g>
<!-- Tropical.untrop_trop&#45;&gt;Tropical.trop -->
<g id="edge25" class="edge">
<title>Tropical.untrop_trop&#45;&gt;Tropical.trop</title>
<path fill="none" stroke="black" d="M524.36,-289.12C549.33,-278.59 582.18,-264.74 608.4,-253.68"/>
<polygon fill="black" stroke="black" points="609.87,-256.86 617.73,-249.75 607.15,-250.41 609.87,-256.86"/>
</g>
<!-- Tropical.untrop_trop&#45;&gt;Tropical.untrop -->
<g id="edge26" class="edge">
<title>Tropical.untrop_trop&#45;&gt;Tropical.untrop</title>
<path fill="none" stroke="black" d="M485.46,-287.7C484.91,-279.98 484.25,-270.71 483.63,-262.11"/>
<polygon fill="black" stroke="black" points="487.12,-261.83 482.92,-252.1 480.14,-262.33 487.12,-261.83"/>
</g>
<!-- Eq -->
<g id="node12" class="node">
<title>Eq</title>
<ellipse fill="none" stroke="blue" cx="297.7" cy="-18" rx="27" ry="18"/>
<text text-anchor="middle" x="297.7" y="-14.3" font-family="Times,serif" font-size="14.00">Eq</text>
</g>
<!-- Tropical.untrop_trop&#45;&gt;Eq -->
<g id="edge27" class="edge">
<title>Tropical.untrop_trop&#45;&gt;Eq</title>
<path fill="none" stroke="black" d="M442.73,-289.44C424.13,-280.91 403.6,-268.64 389.7,-252 335.61,-187.3 365.04,-148.56 329.7,-72 325.22,-62.29 319.39,-52.13 313.93,-43.33"/>
<polygon fill="black" stroke="black" points="316.78,-41.29 308.46,-34.73 310.88,-45.04 316.78,-41.29"/>
</g>
<!-- rfl -->
<g id="node13" class="node">
<title>rfl</title>
<ellipse fill="none" stroke="green" cx="285.7" cy="-234" rx="27" ry="18"/>
<text text-anchor="middle" x="285.7" y="-230.3" font-family="Times,serif" font-size="14.00">rfl</text>
</g>
<!-- Tropical.untrop_trop&#45;&gt;rfl -->
<g id="edge11" class="edge">
<title>Tropical.untrop_trop&#45;&gt;rfl</title>
<path fill="none" stroke="black" d="M442.09,-289.46C404.88,-276.51 352.68,-258.33 319.03,-246.61"/>
<polygon fill="black" stroke="black" points="319.81,-243.17 309.21,-243.19 317.5,-249.78 319.81,-243.17"/>
</g>
<!-- Tropical.untrop&#45;&gt;id -->
<g id="edge12" class="edge">
<title>Tropical.untrop&#45;&gt;id</title>
<path fill="none" stroke="black" d="M500.42,-216.41C511.47,-206.62 525.55,-194.15 537.32,-183.72"/>
<polygon fill="black" stroke="black" points="539.87,-186.13 545.03,-176.88 535.23,-180.89 539.87,-186.13"/>
</g>
<!-- Equiv.mk&#45;&gt;Equiv -->
<g id="edge28" class="edge">
<title>Equiv.mk&#45;&gt;Equiv</title>
<path fill="none" stroke="black" d="M68.01,-288.05C63.3,-279.8 57.53,-269.7 52.29,-260.54"/>
<polygon fill="black" stroke="black" points="55.29,-258.73 47.29,-251.79 49.21,-262.21 55.29,-258.73"/>
</g>
<!-- Tropical.trop_untrop&#45;&gt;Tropical.trop -->
<g id="edge29" class="edge">
<title>Tropical.trop_untrop&#45;&gt;Tropical.trop</title>
<path fill="none" stroke="black" d="M331.69,-293.36C396.23,-283.23 491.23,-267.74 573.7,-252 579.43,-250.91 585.4,-249.72 591.36,-248.49"/>
<polygon fill="black" stroke="black" points="592.27,-251.88 601.35,-246.41 590.84,-245.03 592.27,-251.88"/>
</g>
<!-- Tropical.trop_untrop&#45;&gt;Tropical.untrop -->
<g id="edge30" class="edge">
<title>Tropical.trop_untrop&#45;&gt;Tropical.untrop</title>
<path fill="none" stroke="black" d="M304.46,-289.9C340.31,-278.79 389.09,-263.68 426.39,-252.13"/>
<polygon fill="black" stroke="black" points="427.59,-255.42 436.1,-249.12 425.52,-248.74 427.59,-255.42"/>
</g>
<!-- Tropical.trop_untrop&#45;&gt;Eq -->
<g id="edge31" class="edge">
<title>Tropical.trop_untrop&#45;&gt;Eq</title>
<path fill="none" stroke="black" d="M240.97,-287.84C222.44,-265.01 191.62,-222.55 179.7,-180 175.38,-164.59 177.23,-159.81 179.7,-144 184.87,-110.81 181.43,-98 202.7,-72 218.62,-52.53 243.7,-38.97 264.09,-30.44"/>
<polygon fill="black" stroke="black" points="265.65,-33.59 273.66,-26.66 263.07,-27.08 265.65,-33.59"/>
</g>
<!-- Tropical.trop_untrop&#45;&gt;rfl -->
<g id="edge13" class="edge">
<title>Tropical.trop_untrop&#45;&gt;rfl</title>
<path fill="none" stroke="black" d="M263.11,-287.7C266.58,-279.61 270.78,-269.81 274.61,-260.87"/>
<polygon fill="black" stroke="black" points="277.85,-262.19 278.57,-251.62 271.42,-259.44 277.85,-262.19"/>
</g>
<!-- EquivLike.injective&#45;&gt;Function.Injective -->
<g id="edge32" class="edge">
<title>EquivLike.injective&#45;&gt;Function.Injective</title>
<path fill="none" stroke="black" d="M970.75,-289.05C954.53,-280.14 936.14,-267.66 923.7,-252 891.84,-211.91 876.59,-152.83 870.03,-118.5"/>
<polygon fill="black" stroke="black" points="873.4,-117.5 868.19,-108.27 866.51,-118.74 873.4,-117.5"/>
</g>
<!-- EmbeddingLike.injective -->
<g id="node14" class="node">
<title>EmbeddingLike.injective</title>
<ellipse fill="none" stroke="green" cx="1058.7" cy="-234" rx="126.18" ry="18"/>
<text text-anchor="middle" x="1058.7" y="-230.3" font-family="Times,serif" font-size="14.00">EmbeddingLike.injective</text>
</g>
<!-- EquivLike.injective&#45;&gt;EmbeddingLike.injective -->
<g id="edge14" class="edge">
<title>EquivLike.injective&#45;&gt;EmbeddingLike.injective</title>
<path fill="none" stroke="black" d="M1018.53,-288.05C1024.81,-279.75 1032.51,-269.58 1039.48,-260.38"/>
<polygon fill="black" stroke="black" points="1042.37,-262.36 1045.62,-252.28 1036.79,-258.14 1042.37,-262.36"/>
</g>
<!-- EquivLike.injective&#45;&gt;FunLike.coe -->
<g id="edge33" class="edge">
<title>EquivLike.injective&#45;&gt;FunLike.coe</title>
<path fill="none" stroke="black" d="M1086.3,-295.3C1121.85,-287.9 1162.54,-274.89 1193.7,-252 1224.49,-229.37 1227.17,-215.74 1240.7,-180 1248.19,-160.19 1251.39,-136.39 1252.75,-118.39"/>
<polygon fill="black" stroke="black" points="1256.25,-118.47 1253.36,-108.28 1249.26,-118.05 1256.25,-118.47"/>
</g>
<!-- Function.Injective&#45;&gt;Eq -->
<g id="edge10" class="edge">
<title>Function.Injective&#45;&gt;Eq</title>
<path fill="none" stroke="black" d="M788.5,-79.49C664.5,-64.2 425.61,-34.76 334.36,-23.52"/>
<polygon fill="black" stroke="black" points="334.58,-20.02 324.23,-22.27 333.72,-26.97 334.58,-20.02"/>
</g>
<!-- rfl&#45;&gt;Eq -->
<g id="edge34" class="edge">
<title>rfl&#45;&gt;Eq</title>
<path fill="none" stroke="black" d="M296.71,-217.13C303.05,-207.01 310.39,-193.33 313.7,-180 325.25,-133.41 320.71,-119.49 313.7,-72 312.4,-63.21 309.95,-53.86 307.36,-45.5"/>
<polygon fill="black" stroke="black" points="310.64,-44.29 304.18,-35.9 304,-46.49 310.64,-44.29"/>
</g>
<!-- rfl.proof_1 -->
<g id="node15" class="node">
<title>rfl.proof_1</title>
<ellipse fill="none" stroke="green" cx="246.7" cy="-162" rx="58.49" ry="18"/>
<text text-anchor="middle" x="246.7" y="-158.3" font-family="Times,serif" font-size="14.00">rfl.proof_1</text>
</g>
<!-- rfl&#45;&gt;rfl.proof_1 -->
<g id="edge15" class="edge">
<title>rfl&#45;&gt;rfl.proof_1</title>
<path fill="none" stroke="black" d="M276.65,-216.76C272.06,-208.53 266.37,-198.32 261.19,-189.02"/>
<polygon fill="black" stroke="black" points="264.16,-187.16 256.24,-180.12 258.05,-190.56 264.16,-187.16"/>
</g>
<!-- EmbeddingLike.injective&#45;&gt;Function.Injective -->
<g id="edge35" class="edge">
<title>EmbeddingLike.injective&#45;&gt;Function.Injective</title>
<path fill="none" stroke="black" d="M1011.69,-217.19C989.23,-208.31 962.73,-195.81 941.7,-180 918.04,-162.21 896.69,-135.85 882.69,-116.43"/>
<polygon fill="black" stroke="black" points="885.41,-114.21 876.79,-108.05 879.69,-118.24 885.41,-114.21"/>
</g>
<!-- EmbeddingLike.injective&#39; -->
<g id="node16" class="node">
<title>EmbeddingLike.injective&#39;</title>
<ellipse fill="none" stroke="green" cx="1078.7" cy="-162" rx="128.08" ry="18"/>
<text text-anchor="middle" x="1078.7" y="-158.3" font-family="Times,serif" font-size="14.00">EmbeddingLike.injective&#39;</text>
</g>
<!-- EmbeddingLike.injective&#45;&gt;EmbeddingLike.injective&#39; -->
<g id="edge16" class="edge">
<title>EmbeddingLike.injective&#45;&gt;EmbeddingLike.injective&#39;</title>
<path fill="none" stroke="black" d="M1063.64,-215.7C1065.87,-207.9 1068.55,-198.51 1071.03,-189.83"/>
<polygon fill="black" stroke="black" points="1074.43,-190.68 1073.81,-180.1 1067.7,-188.76 1074.43,-190.68"/>
</g>
<!-- EmbeddingLike.injective&#45;&gt;FunLike.coe -->
<g id="edge36" class="edge">
<title>EmbeddingLike.injective&#45;&gt;FunLike.coe</title>
<path fill="none" stroke="black" d="M1138.21,-219.94C1165.43,-212.14 1194.37,-199.73 1215.7,-180 1233.37,-163.66 1243.16,-137.74 1248.36,-118.07"/>
<polygon fill="black" stroke="black" points="1251.8,-118.71 1250.74,-108.17 1245,-117.08 1251.8,-118.71"/>
</g>
<!-- rfl.proof_1&#45;&gt;Eq -->
<g id="edge37" class="edge">
<title>rfl.proof_1&#45;&gt;Eq</title>
<path fill="none" stroke="black" d="M231.51,-144.32C216.74,-125.98 198.34,-95.92 211.7,-72 222.89,-51.96 245.12,-38.56 264.17,-30.24"/>
<polygon fill="black" stroke="black" points="265.54,-33.46 273.49,-26.46 262.91,-26.98 265.54,-33.46"/>
</g>
<!-- Eq.refl -->
<g id="node17" class="node">
<title>Eq.refl</title>
<ellipse fill="none" stroke="green" cx="262.7" cy="-90" rx="42.49" ry="18"/>
<text text-anchor="middle" x="262.7" y="-86.3" font-family="Times,serif" font-size="14.00">Eq.refl</text>
</g>
<!-- rfl.proof_1&#45;&gt;Eq.refl -->
<g id="edge17" class="edge">
<title>rfl.proof_1&#45;&gt;Eq.refl</title>
<path fill="none" stroke="black" d="M250.65,-143.7C252.41,-135.98 254.53,-126.71 256.5,-118.11"/>
<polygon fill="black" stroke="black" points="259.97,-118.63 258.79,-108.1 253.15,-117.07 259.97,-118.63"/>
</g>
<!-- EmbeddingLike.injective&#39;&#45;&gt;Function.Injective -->
<g id="edge38" class="edge">
<title>EmbeddingLike.injective&#39;&#45;&gt;Function.Injective</title>
<path fill="none" stroke="black" d="M1030.9,-145.29C998.3,-134.58 955.03,-120.36 920.95,-109.16"/>
<polygon fill="black" stroke="black" points="921.74,-105.73 911.15,-105.94 919.56,-112.38 921.74,-105.73"/>
</g>
<!-- EmbeddingLike.injective&#39;&#45;&gt;FunLike.coe -->
<g id="edge39" class="edge">
<title>EmbeddingLike.injective&#39;&#45;&gt;FunLike.coe</title>
<path fill="none" stroke="black" d="M1119.29,-144.76C1146.02,-134.07 1181.05,-120.06 1208.65,-109.02"/>
<polygon fill="black" stroke="black" points="1210.09,-112.21 1218.07,-105.25 1207.49,-105.71 1210.09,-112.21"/>
</g>
<!-- Eq.refl&#45;&gt;Eq -->
<g id="edge40" class="edge">
<title>Eq.refl&#45;&gt;Eq</title>
<path fill="none" stroke="black" d="M271.17,-72.05C275.31,-63.77 280.39,-53.62 284.98,-44.42"/>
<polygon fill="black" stroke="black" points="288.2,-45.82 289.54,-35.31 281.94,-42.69 288.2,-45.82"/>
</g>
</g>
</svg>
